<svg width="38" height="37" viewBox="0 0 38 37" fill="none" xmlns="http://www.w3.org/2000/svg">
<path d="M23.2822 23.4713L19.9518 32.6301C19.8702 32.8499 19.7233 33.0394 19.5308 33.1733C19.3384 33.3071 19.1096 33.3789 18.8751 33.3789C18.6407 33.3789 18.4119 33.3071 18.2194 33.1733C18.0269 33.0394 17.88 32.8499 17.7985 32.6301L14.468 23.4713C14.4098 23.3134 14.3181 23.1701 14.1991 23.0511C14.0802 22.9321 13.9368 22.8404 13.7789 22.7822L4.62014 19.4518C4.40035 19.3702 4.2108 19.2233 4.07694 19.0308C3.94309 18.8384 3.87134 18.6096 3.87134 18.3751C3.87134 18.1407 3.94309 17.9119 4.07694 17.7194C4.2108 17.5269 4.40035 17.38 4.62014 17.2985L13.7789 13.968C13.9368 13.9098 14.0802 13.8181 14.1991 13.6991C14.3181 13.5802 14.4098 13.4368 14.468 13.2789L17.7985 4.12014C17.88 3.90035 18.0269 3.7108 18.2194 3.57694C18.4119 3.44309 18.6407 3.37134 18.8751 3.37134C19.1096 3.37134 19.3384 3.44309 19.5308 3.57694C19.7233 3.7108 19.8702 3.90035 19.9518 4.12014L23.2822 13.2789C23.3404 13.4368 23.4321 13.5802 23.5511 13.6991C23.6701 13.8181 23.8134 13.9098 23.9713 13.968L33.1301 17.2985C33.3499 17.38 33.5394 17.5269 33.6733 17.7194C33.8071 17.9119 33.8789 18.1407 33.8789 18.3751C33.8789 18.6096 33.8071 18.8384 33.6733 19.0308C33.5394 19.2233 33.3499 19.3702 33.1301 19.4518L23.9713 22.7822C23.8134 22.8404 23.6701 22.9321 23.5511 23.0511C23.4321 23.1701 23.3404 23.3134 23.2822 23.4713V23.4713Z" stroke="#FFC27A" stroke-width="2.29688" stroke-linecap="round" stroke-linejoin="round"/>
</svg>
