
<svg xmlns="http://www.w3.org/2000/svg" width="18" height="18" viewBox="0 0 18 18" fill="none">
    <g clip-path="url(#clip0_173_25547)">
    <path d="M17 9C17 10.5 16.58 11.92 15.84 13.12C15.42 13.84 14.88 14.48 14.26 15C12.86 16.26 11.02 17 9 17C6.08 17 3.53997 15.44 2.15997 13.12C1.41997 11.92 1 10.5 1 9C1 6.48 2.16 4.22001 4 2.76001C5.38 1.66001 7.12 1 9 1C13.42 1 17 4.58 17 9Z" fill="white" fill-opacity="0.1" stroke="black" stroke-width="1.5" stroke-miterlimit="10" stroke-linecap="round" stroke-linejoin="round"/>
    <path d="M6.33984 9.6301L8.3299 11.6202L12.6116 7.66016" fill="white" fill-opacity="0.1"/>
    <path d="M6.33984 9.6301L8.3299 11.6202L12.6116 7.66016" stroke="black" stroke-width="1.5" stroke-linecap="round" stroke-linejoin="round"/>
    </g>
    <defs>
    <clipPath id="clip0_173_25547">
        <rect width="18" height="18" fill="white"/>
    </clipPath>
    </defs>
</svg>